#!OML:ASF H:\Terrain\Patient Classification 1\Takeo\Monday\TakeoMonday.ASF
:FULLY-SPECIFIED
:DEGREES
915
root 9.09813 17.0419 -2.46715 19.9688 16.3651 2.59439
lowerback 23.1463 5.14417 4.6591
upperback 14.7492 7.57376 3.3712
thorax 3.58708 4.03084 -0.410519
lowerneck -11.187 -5.7119 -1.96335
upperneck -8.78018 -7.30432 3.1251
head -0.707791 -3.61775 1.08611
rclavicle 6.36111e-015 -1.74931e-014
rhumerus 11.2669 67.9357 -107.704
rradius 39.3149
rwrist -80.1272
rhand -45.3104 -2.91219
rfingers 7.12502
rthumb -18.0823 -32.0917
lclavicle 6.36111e-015 -1.74931e-014
lhumerus 28.7823 5.24929 96.2218
lradius 11.3581
lwrist -11.4298
lhand -37.9026 36.3537
lfingers 7.12502
lthumb -10.9453 66.0484
rfemur -25.3459 -25.6242 31.9351
rtibia 37.7062
rfoot -34.7388 -24.9741
rtoes -5.97439
lfemur -51.8898 -11.4826 -17.8701
ltibia 34.8152
lfoot 0.740526 -8.73058
ltoes -8.44749
916
root 9.08186 17.0443 -2.44158 20.2358 16.7824 2.60915
lowerback 23.3237 5.2016 4.76595
upperback 14.7096 7.67968 3.43422
thorax 3.4675 4.08587 -0.441434
lowerneck -10.6124 -5.96273 -2.60975
upperneck -9.14595 -7.54605 4.0433
head -0.845047 -3.72919 1.49822
rclavicle -7.31528e-014 2.8625e-014
rhumerus 10.0908 68.3243 -108.847
rradius 39.4235
rwrist -80.3316
rhand -44.8026 -3.56715
rfingers 7.12502
rthumb -17.5936 -32.7911
lclavicle -7.31528e-014 2.8625e-014
lhumerus 28.0839 5.41157 95.9311
lradius 11.6104
lwrist -11.1246
lhand -37.4476 36.0513
lfingers 7.12502
lthumb -10.5065 65.7687
rfemur -25.554 -25.9704 32.2598
rtibia 37.5373
rfoot -34.8018 -24.9868
rtoes -3.90337
lfemur -52.2317 -11.7956 -17.602
ltibia 34.881
lfoot 0.655798 -9.26593
ltoes -11.8746
917
root 9.06483 17.0586 -2.41598 20.2495 17.1135 2.31174
lowerback 23.7099 5.38283 5.19413
upperback 14.6622 8.00918 3.46439
thorax 3.3056 4.2731 -0.741571
lowerneck -10.1286 -6.17788 -2.38317
upperneck -9.55365 -7.84962 4.28541
head -1.04077 -3.89802 1.55406
rclavicle -6.36111e-014 -1.59028e-014
rhumerus 9.33945 68.3542 -109.697
rradius 39.4799
rwrist -80.8268
rhand -45.0755 -3.82938
rfingers 7.12502
rthumb -17.8563 -33.0296
lclavicle -6.36111e-014 -1.59028e-014
lhumerus 27.5713 5.5231 95.8361
lradius 11.5987
lwrist -11.4214
lhand -36.9325 35.6722
lfingers 7.12502
lthumb -10.0095 65.4142
rfemur -25.4734 -26.0742 32.7962
rtibia 37.2083
rfoot -34.6733 -25.1779
rtoes -2.57526
lfemur -52.3988 -11.9256 -17.0704
ltibia 35.045
lfoot 0.476893 -9.80503
ltoes -15.595
918
root 9.05266 17.0428 -2.38978 20.3183 17.487 2.09964
lowerback 23.9573 5.49398 5.69134
upperback 14.6523 8.25645 3.44064
thorax 3.27414 4.43021 -1.10264
lowerneck -10.118 -6.32431 -2.03381
upperneck -9.49761 -8.08602 4.17351
head -1.03627 -4.0282 1.45318
rclavicle -3.18055e-014 4.77083e-014
rhumerus 8.66639 68.2313 -110.466
rradius 39.6235
rwrist -81.1198
rhand -46.2314 -3.22792
rfingers 7.12502
rthumb -18.9682 -32.323
lclavicle -3.18055e-014 4.77083e-014
lhumerus 27.3192 6.06496 96.0495
lradius 11.2966
lwrist -11.9564
lhand -36.884 34.991
lfingers 7.12502
lthumb -9.96269 64.7353
rfemur -25.4594 -26.339 33.2941
rtibia 36.8937
rfoot -34.3391 -25.4876
rtoes -4.886
lfemur -52.6431 -12.0171 -16.8059
ltibia 35.2974
lfoot 0.629693 -9.37633
ltoes -12.6209
919
root 9.03691 17.0357 -2.36155 20.4136 17.9131 1.84846
lowerback 24.0293 5.5384 6.04978
upperback 14.7109 8.38429 3.51706
thorax 3.3621 4.5179 -1.23663
lowerneck -10.4849 -6.39054 -2.0324
upperneck -9.10667 -8.1755 4.21407
head -0.849613 -4.06758 1.43949
rclavicle 1.90833e-014 -7.79236e-014
rhumerus 8.04651 68.5572 -111.044
rradius 39.7528
rwrist -81.5514
rhand -46.5649 -1.69934
rfingers 7.12502
rthumb -19.289 -30.7627
lclavicle 1.90833e-014 -7.79236e-014
lhumerus 27.1879 6.91996 96.3562
lradius 11.1232
lwrist -12.4032
lhand -37.2903 34.3621
lfingers 7.12502
lthumb -10.3547 64.0872
rfemur -25.488 -26.5066 33.822
rtibia 36.7245
rfoot -34.5573 -25.4816
rtoes -4.3627
lfemur -52.9433 -12.2277 -16.3929
ltibia 35.4222
lfoot 1.08994 -8.69993
ltoes -7.88512
920
root 9.03088 17.0302 -2.33622 20.8052 18.3295 2.034
lowerback 23.7827 5.54278 6.04219
upperback 14.8076 8.37404 3.59546
thorax 3.57574 4.51758 -1.11121
lowerneck -10.5507 -6.46001 -2.28224
upperneck -9.17754 -8.24489 4.15091
head -0.852385 -4.09434 1.45802
rclavicle 6.04305e-014 -7.95139e-015
rhumerus 7.22789 68.8649 -111.67
rradius 39.8315
rwrist -81.8196
rhand -45.6005 -1.00153
rfingers 7.12502
rthumb -18.3614 -30.1549
lclavicle 6.04305e-014 -7.95139e-015
lhumerus 26.8003 6.88311 96.1889
lradius 11.4716
lwrist -11.9444
lhand -37.8986 34.8407
lfingers 7.12502
lthumb -10.9414 64.5356
rfemur -25.8005 -26.7131 33.9055
rtibia 36.7657
rfoot -34.9429 -25.3408
rtoes -2.23293
lfemur -53.3655 -12.678 -16.3424
ltibia 35.4502
lfoot 1.42197 -8.32408
ltoes -5.65779
921
root 9.03193 17.0163 -2.31931 21.2583 18.6533 2.50211
lowerback 23.6219 5.54566 5.91266
upperback 14.8402 8.3472 3.56659
thorax 3.67133 4.50239 -1.04749
lowerneck -10.2196 -6.54311 -2.46116
upperneck -9.5512 -8.34612 4.02612
head -1.01919 -4.144 1.46707
rclavicle 6.99722e-014 -1.59028e-014
rhumerus 6.09352 67.9313 -112.854
rradius 39.6007
rwrist -81.4848
rhand -45.0818 -4.17401
rfingers 7.12502
rthumb -17.8623 -33.3737
lclavicle 6.99722e-014 -1.59028e-014
lhumerus 26.16 5.74899 95.4145
lradius 11.9549
lwrist -10.3801
lhand -37.7936 35.4952
lfingers 7.12502
lthumb -10.8401 65.1955
rfemur -26.1163 -27.0302 33.6541
rtibia 36.7631
rfoot -34.8642 -25.4176
rtoes -2.42319
lfemur -53.6174 -13.132 -16.7162
ltibia 35.4388
lfoot 1.48739 -8.05956
ltoes -6.11377
